<svg width="24" height="24" viewBox="0 0 24 24" fill="none" xmlns="http://www.w3.org/2000/svg">
<path d="M10.8977 12.9999C10.5496 12.5634 10.1511 12.2293 9.70484 12.0033C10.0992 11.7632 10.4388 11.4684 10.7194 11.1175C11.1924 10.5251 11.4323 9.78254 11.4323 8.90942C11.4323 8.18087 11.2401 7.5113 10.8598 6.92033C10.4809 6.32935 9.91674 5.85488 9.1828 5.50956C8.4643 5.17126 7.59845 5 6.61191 5H1V19.4964H6.87012C7.8314 19.4964 8.69024 19.321 9.42137 18.9757C10.1665 18.6247 10.7475 18.1334 11.1461 17.5172C11.546 16.8981 11.7495 16.1948 11.7495 15.427C11.7495 14.5272 11.4632 13.7116 10.8977 13.0013V12.9999ZM7.917 10.3581C7.57038 10.6388 7.06378 10.782 6.41404 10.782H3.98628V7.57026H6.41404C7.06097 7.57026 7.56477 7.71765 7.91139 8.00963C8.24398 8.28897 8.40536 8.675 8.40536 9.18597C8.40536 9.69693 8.24538 10.0928 7.917 10.3581ZM3.98628 13.3537H6.59226C7.27428 13.3537 7.79912 13.5193 8.19626 13.8604C8.57657 14.1875 8.76181 14.6213 8.76181 15.1884C8.76181 15.7555 8.5906 16.1555 8.23696 16.4545C7.87069 16.7647 7.34445 16.922 6.67085 16.922H3.98628V13.3537Z" fill="black"/>
<path d="M23.2153 10.5757C22.7635 9.7587 22.1235 9.1144 21.3124 8.6624C20.5027 8.21039 19.5667 7.98157 18.5338 7.98157C17.501 7.98157 16.4948 8.21739 15.6654 8.68203C14.8346 9.14807 14.1807 9.81767 13.7232 10.6754C13.2657 11.5316 13.0342 12.5367 13.0342 13.6625C13.0342 14.7883 13.2727 15.7948 13.7443 16.6497C14.2158 17.506 14.8753 18.1797 15.7061 18.6514C16.5355 19.1231 17.4869 19.3617 18.5352 19.3617C19.8221 19.3617 20.9153 19.0346 21.7853 18.3903C22.6554 17.746 23.2644 16.9066 23.597 15.8973L23.6209 15.8257H21.0752L21.0598 15.8566C20.5701 16.849 19.721 17.3515 18.5338 17.3515C17.7073 17.3515 17 17.0891 16.4316 16.5739C15.8773 16.0699 15.5588 15.3961 15.4844 14.5693H23.8089L23.8159 14.523C23.8693 14.1903 23.8959 13.8141 23.8959 13.4056C23.8959 12.3444 23.6672 11.3927 23.2153 10.5757ZM16.4709 10.7217C17.0126 10.2374 17.6736 9.99314 18.4342 9.99314C19.2748 9.99314 19.9891 10.2416 20.5574 10.7329C21.1103 11.2102 21.4036 11.8517 21.4289 12.6378H15.5082C15.6205 11.8391 15.9447 11.1947 16.4723 10.7231L16.4709 10.7217Z" fill="black"/>
<path d="M21.2369 5.33411H15.6924V6.64801H21.2369V5.33411Z" fill="black"/>
</svg>
