<svg width="24" height="24" viewBox="0 0 24 24" fill="none" xmlns="http://www.w3.org/2000/svg">
<path d="M12.1719 3.5C14.5098 3.5 16.4735 4.34228 17.9756 5.71387L15.4873 8.15137C14.5885 7.30937 13.4451 6.88086 12.1719 6.88086C9.91414 6.88094 8.00331 8.37445 7.32031 10.3818V10.3848C7.14684 10.8948 7.04785 11.4398 7.04785 12C7.04786 12.5602 7.14685 13.1053 7.32031 13.6152H7.31934C8.00147 15.6241 9.91305 17.1191 12.1719 17.1191C13.3389 17.1191 14.3327 16.8176 15.1094 16.3076H15.1104L15.2793 16.1914C16.104 15.592 16.6533 14.7383 16.8418 13.7422H12.1738V10.4541H20.3428C20.4453 11.0105 20.5 11.5906 20.5 12.1934C20.4999 14.7817 19.5539 16.9607 17.9141 18.4404H17.9121L17.6367 18.6777C16.23 19.8309 14.3672 20.5 12.1719 20.5C8.78141 20.4999 5.84805 18.5953 4.4209 15.8174V15.8125C3.83487 14.6661 3.50001 13.3698 3.5 12C3.5 10.6288 3.83476 9.33085 4.42188 8.18359L4.4209 8.18262C5.84805 5.40472 8.78141 3.50007 12.1719 3.5Z" fill="black"/>
</svg>
