<svg width="32" height="32" viewBox="0 0 32 32" fill="none" xmlns="http://www.w3.org/2000/svg">
<path d="M0 7.72414C0 3.45821 3.45821 0 7.72414 0C11.9901 0 15.4483 3.45821 15.4483 7.72414V15.4483H7.72414C3.45821 15.4483 0 11.9901 0 7.72414Z" fill="white"/>
<path d="M15.4483 24.2759C15.4483 28.5418 11.9901 32 7.72414 32C3.45821 32 3.02327e-07 28.5418 6.75266e-07 24.2759L1.35053e-06 16.5517H7.72414C11.9901 16.5517 15.4483 20.0099 15.4483 24.2759Z" fill="white"/>
<path d="M16.5517 7.72414C16.5517 3.45821 20.0099 0 24.2759 0C28.5418 0 32 3.45821 32 7.72414V15.4483H24.2759C20.0099 15.4483 16.5517 11.9901 16.5517 7.72414Z" fill="white"/>
<path d="M32 24.2759C32 28.5418 28.5418 32 24.2759 32C20.0099 32 16.5517 28.5418 16.5517 24.2759L16.5517 16.5517H24.2759C28.5418 16.5517 32 20.0099 32 24.2759Z" fill="white"/>
</svg>
