<svg width="25" height="25" viewBox="0 0 25 25" fill="none" xmlns="http://www.w3.org/2000/svg">
<path d="M8.43814 6.90193C10.0881 4.04419 10.913 2.61532 12.3133 2.24009C13.7138 1.8649 15.1426 2.68985 18.0003 4.33975C20.8581 5.98967 22.2869 6.81463 22.6621 8.21498C23.0374 9.61532 22.2124 11.0442 20.5625 13.9019L17.5625 19.0981C15.9126 21.9558 15.0876 23.3846 13.6873 23.7599C12.2869 24.1351 10.8581 23.3102 8.00032 21.6603C5.14261 20.0104 3.71376 19.1854 3.33846 17.785C2.96329 16.3846 3.78824 14.9558 5.43814 12.0981L8.43814 6.90193Z" stroke="#141B34" stroke-width="1.5" stroke-linecap="round"/>
<path d="M8.63416 18.5622L10.3662 19.5622" stroke="#141B34" stroke-width="1.5" stroke-linecap="round" stroke-linejoin="round"/>
<path d="M15.4015 2.83975L15.2116 3.34673C14.7822 4.49279 14.5863 5.04619 14.785 5.56274C14.9755 6.05788 15.4836 6.35123 16.4996 6.93783C17.5595 7.54978 18.0731 7.834 18.6153 7.72291C19.1351 7.61641 19.5079 7.16351 20.2536 6.25773L20.5977 5.83975" stroke="#141B34" stroke-width="1.5" stroke-linejoin="round"/>
</svg>
