<svg width="124" height="32" viewBox="0 0 124 32" fill="none" xmlns="http://www.w3.org/2000/svg">
<path d="M0 7.72414C0 3.45821 3.45821 0 7.72414 0C11.9901 0 15.4483 3.45821 15.4483 7.72414V15.4483H7.72414C3.45821 15.4483 0 11.9901 0 7.72414Z" fill="black"/>
<path d="M15.4483 24.2759C15.4483 28.5418 11.9901 32 7.72414 32C3.45821 32 3.02327e-07 28.5418 6.75266e-07 24.2759L1.35053e-06 16.5517H7.72414C11.9901 16.5517 15.4483 20.0099 15.4483 24.2759Z" fill="black"/>
<path d="M16.5517 7.72414C16.5517 3.45821 20.0099 0 24.2759 0C28.5418 0 32 3.45821 32 7.72414V15.4483H24.2759C20.0099 15.4483 16.5517 11.9901 16.5517 7.72414Z" fill="black"/>
<path d="M32 24.2759C32 28.5418 28.5418 32 24.2759 32C20.0099 32 16.5517 28.5418 16.5517 24.2759L16.5517 16.5517H24.2759C28.5418 16.5517 32 20.0099 32 24.2759Z" fill="black"/>
<path d="M44.528 12.128L45.808 10.88C46.096 11.2427 46.4373 11.5573 46.832 11.824C47.2373 12.0907 47.6693 12.2933 48.128 12.432C48.5973 12.5707 49.088 12.64 49.6 12.64C50.1547 12.64 50.6347 12.5653 51.04 12.416C51.456 12.2667 51.7813 12.0533 52.016 11.776C52.2507 11.4987 52.368 11.1787 52.368 10.816C52.368 10.3253 52.144 9.936 51.696 9.648C51.2587 9.36 50.4853 9.13067 49.376 8.96C48.3413 8.81067 47.504 8.59733 46.864 8.32C46.224 8.04267 45.7547 7.69067 45.456 7.264C45.168 6.83733 45.024 6.336 45.024 5.76C45.024 5.07733 45.2107 4.48 45.584 3.968C45.968 3.44533 46.4907 3.04 47.152 2.752C47.824 2.45333 48.592 2.304 49.456 2.304C50.4587 2.304 51.344 2.496 52.112 2.88C52.8907 3.264 53.5573 3.776 54.112 4.416L52.864 5.664C52.448 5.12 51.9573 4.69333 51.392 4.384C50.8373 4.064 50.1973 3.904 49.472 3.904C48.7147 3.904 48.096 4.064 47.616 4.384C47.136 4.704 46.896 5.13067 46.896 5.664C46.896 5.952 46.9867 6.19733 47.168 6.4C47.3493 6.592 47.648 6.75733 48.064 6.896C48.4907 7.03467 49.056 7.15733 49.76 7.264C50.816 7.424 51.6693 7.65333 52.32 7.952C52.9813 8.25067 53.4667 8.62933 53.776 9.088C54.0853 9.54667 54.24 10.096 54.24 10.736C54.24 11.44 54.0427 12.0587 53.648 12.592C53.2533 13.1147 52.704 13.5253 52 13.824C51.296 14.112 50.4853 14.256 49.568 14.256C48.4907 14.256 47.5307 14.064 46.688 13.68C45.8453 13.296 45.1253 12.7787 44.528 12.128ZM61.8331 14.256C60.9585 14.256 60.1531 14.1067 59.4171 13.808C58.6811 13.5093 58.0411 13.0933 57.4971 12.56C56.9531 12.016 56.5318 11.3813 56.2331 10.656C55.9345 9.92 55.7851 9.12533 55.7851 8.272C55.7851 7.41867 55.9345 6.62933 56.2331 5.904C56.5318 5.17867 56.9531 4.54933 57.4971 4.016C58.0411 3.472 58.6811 3.05067 59.4171 2.752C60.1531 2.45333 60.9585 2.304 61.8331 2.304C62.7078 2.304 63.5131 2.45333 64.2491 2.752C64.9851 3.05067 65.6251 3.472 66.1691 4.016C66.7131 4.54933 67.1345 5.17867 67.4331 5.904C67.7318 6.62933 67.8811 7.41867 67.8811 8.272C67.8811 9.12533 67.7318 9.92 67.4331 10.656C67.1345 11.3813 66.7131 12.016 66.1691 12.56C65.6251 13.0933 64.9851 13.5093 64.2491 13.808C63.5131 14.1067 62.7078 14.256 61.8331 14.256ZM61.8331 12.624C62.6438 12.624 63.3585 12.4373 63.9771 12.064C64.5958 11.6907 65.0811 11.1787 65.4331 10.528C65.7851 9.86667 65.9611 9.11467 65.9611 8.272C65.9611 7.42933 65.7851 6.68267 65.4331 6.032C65.0811 5.38133 64.5958 4.86933 63.9771 4.496C63.3585 4.12267 62.6438 3.936 61.8331 3.936C61.0331 3.936 60.3185 4.12267 59.6891 4.496C59.0705 4.86933 58.5851 5.38133 58.2331 6.032C57.8811 6.68267 57.7051 7.42933 57.7051 8.272C57.7051 9.11467 57.8811 9.86667 58.2331 10.528C58.5851 11.1787 59.0705 11.6907 59.6891 12.064C60.3185 12.4373 61.0331 12.624 61.8331 12.624ZM69.9348 14V2.56H74.5268C75.2734 2.56 75.9241 2.688 76.4788 2.944C77.0441 3.18933 77.4761 3.536 77.7748 3.984C78.0841 4.432 78.2388 4.95467 78.2388 5.552C78.2388 6.11733 78.0841 6.61867 77.7748 7.056C77.4761 7.48267 77.0441 7.81867 76.4788 8.064C75.9241 8.29867 75.2734 8.416 74.5268 8.416H71.9348V7.616H74.7508C75.5508 7.616 76.2494 7.744 76.8468 8C77.4441 8.256 77.9081 8.61867 78.2388 9.088C78.5694 9.54667 78.7348 10.0907 78.7348 10.72C78.7348 11.3707 78.5694 11.9467 78.2388 12.448C77.9081 12.9387 77.4441 13.3227 76.8468 13.6C76.2494 13.8667 75.5508 14 74.7508 14H69.9348ZM71.7748 12.448H74.7508C75.4121 12.448 75.9294 12.2933 76.3028 11.984C76.6761 11.664 76.8628 11.2213 76.8628 10.656C76.8628 10.1013 76.6761 9.66933 76.3028 9.36C75.9294 9.05067 75.4121 8.896 74.7508 8.896H71.6148V7.36H74.4468C75.0441 7.36 75.5134 7.216 75.8548 6.928C76.2068 6.62933 76.3828 6.224 76.3828 5.712C76.3828 5.21067 76.2068 4.82133 75.8548 4.544C75.5134 4.256 75.0441 4.112 74.4468 4.112H71.7748V12.448ZM86.2238 14.256C85.3491 14.256 84.5438 14.1067 83.8078 13.808C83.0718 13.5093 82.4318 13.0933 81.8878 12.56C81.3438 12.016 80.9224 11.3813 80.6238 10.656C80.3251 9.92 80.1758 9.12533 80.1758 8.272C80.1758 7.41867 80.3251 6.62933 80.6238 5.904C80.9224 5.17867 81.3438 4.54933 81.8878 4.016C82.4318 3.472 83.0718 3.05067 83.8078 2.752C84.5438 2.45333 85.3491 2.304 86.2238 2.304C87.0984 2.304 87.9038 2.45333 88.6398 2.752C89.3758 3.05067 90.0158 3.472 90.5598 4.016C91.1038 4.54933 91.5251 5.17867 91.8238 5.904C92.1224 6.62933 92.2718 7.41867 92.2718 8.272C92.2718 9.12533 92.1224 9.92 91.8238 10.656C91.5251 11.3813 91.1038 12.016 90.5598 12.56C90.0158 13.0933 89.3758 13.5093 88.6398 13.808C87.9038 14.1067 87.0984 14.256 86.2238 14.256ZM86.2238 12.624C87.0344 12.624 87.7491 12.4373 88.3678 12.064C88.9864 11.6907 89.4718 11.1787 89.8238 10.528C90.1758 9.86667 90.3518 9.11467 90.3518 8.272C90.3518 7.42933 90.1758 6.68267 89.8238 6.032C89.4718 5.38133 88.9864 4.86933 88.3678 4.496C87.7491 4.12267 87.0344 3.936 86.2238 3.936C85.4238 3.936 84.7091 4.12267 84.0798 4.496C83.4611 4.86933 82.9758 5.38133 82.6238 6.032C82.2718 6.68267 82.0958 7.42933 82.0958 8.272C82.0958 9.11467 82.2718 9.86667 82.6238 10.528C82.9758 11.1787 83.4611 11.6907 84.0798 12.064C84.7091 12.4373 85.4238 12.624 86.2238 12.624ZM101.717 14H94.3254V2.56H96.1654V12.4H101.717V14ZM111.354 14H103.482V2.56H111.354V4.128H105.322V12.432H111.354V14ZM111.05 8.976H105.162V7.408H111.05V8.976ZM118.958 14H117.07L112.59 2.56H114.574L118.334 12.656H117.758L121.518 2.56H123.454L118.958 14ZM44.528 28.128L45.808 26.88C46.096 27.2427 46.4373 27.5573 46.832 27.824C47.2373 28.0907 47.6693 28.2933 48.128 28.432C48.5973 28.5707 49.088 28.64 49.6 28.64C50.1547 28.64 50.6347 28.5653 51.04 28.416C51.456 28.2667 51.7813 28.0533 52.016 27.776C52.2507 27.4987 52.368 27.1787 52.368 26.816C52.368 26.3253 52.144 25.936 51.696 25.648C51.2587 25.36 50.4853 25.1307 49.376 24.96C48.3413 24.8107 47.504 24.5973 46.864 24.32C46.224 24.0427 45.7547 23.6907 45.456 23.264C45.168 22.8373 45.024 22.336 45.024 21.76C45.024 21.0773 45.2107 20.48 45.584 19.968C45.968 19.4453 46.4907 19.04 47.152 18.752C47.824 18.4533 48.592 18.304 49.456 18.304C50.4587 18.304 51.344 18.496 52.112 18.88C52.8907 19.264 53.5573 19.776 54.112 20.416L52.864 21.664C52.448 21.12 51.9573 20.6933 51.392 20.384C50.8373 20.064 50.1973 19.904 49.472 19.904C48.7147 19.904 48.096 20.064 47.616 20.384C47.136 20.704 46.896 21.1307 46.896 21.664C46.896 21.952 46.9867 22.1973 47.168 22.4C47.3493 22.592 47.648 22.7573 48.064 22.896C48.4907 23.0347 49.056 23.1573 49.76 23.264C50.816 23.424 51.6693 23.6533 52.32 23.952C52.9813 24.2507 53.4667 24.6293 53.776 25.088C54.0853 25.5467 54.24 26.096 54.24 26.736C54.24 27.44 54.0427 28.0587 53.648 28.592C53.2533 29.1147 52.704 29.5253 52 29.824C51.296 30.112 50.4853 30.256 49.568 30.256C48.4907 30.256 47.5307 30.064 46.688 29.68C45.8453 29.296 45.1253 28.7787 44.528 28.128ZM61.1101 30H59.2701V19.984H61.1101V30ZM64.7741 20.144H55.6221V18.56H64.7741V20.144ZM75.9685 18.56V25.488C75.9685 26.992 75.5418 28.1653 74.6885 29.008C73.8458 29.84 72.6778 30.256 71.1845 30.256C69.7018 30.256 68.5338 29.84 67.6805 29.008C66.8272 28.1653 66.4005 26.992 66.4005 25.488V18.56H68.2405V25.488C68.2405 26.4693 68.4965 27.2373 69.0085 27.792C69.5312 28.3467 70.2565 28.624 71.1845 28.624C72.1232 28.624 72.8485 28.3467 73.3605 27.792C73.8832 27.2373 74.1445 26.4693 74.1445 25.488V18.56H75.9685ZM78.2785 30V18.56H82.1665C83.3825 18.56 84.4438 18.8053 85.3505 19.296C86.2678 19.7867 86.9772 20.464 87.4785 21.328C87.9905 22.1813 88.2465 23.1627 88.2465 24.272C88.2465 25.3813 87.9905 26.368 87.4785 27.232C86.9772 28.096 86.2678 28.7733 85.3505 29.264C84.4438 29.7547 83.3825 30 82.1665 30H78.2785ZM80.1185 28.416H82.1665C83.0198 28.416 83.7558 28.2453 84.3745 27.904C85.0038 27.552 85.4838 27.0667 85.8145 26.448C86.1558 25.8293 86.3265 25.104 86.3265 24.272C86.3265 23.44 86.1558 22.7147 85.8145 22.096C85.4838 21.4773 85.0038 20.9973 84.3745 20.656C83.7558 20.3147 83.0198 20.144 82.1665 20.144H80.1185V28.416ZM92.1185 30H90.2785V18.56H92.1185V30ZM100.208 30.256C99.3335 30.256 98.5281 30.1067 97.7921 29.808C97.0561 29.5093 96.4161 29.0933 95.8721 28.56C95.3281 28.016 94.9068 27.3813 94.6081 26.656C94.3095 25.92 94.1601 25.1253 94.1601 24.272C94.1601 23.4187 94.3095 22.6293 94.6081 21.904C94.9068 21.1787 95.3281 20.5493 95.8721 20.016C96.4161 19.472 97.0561 19.0507 97.7921 18.752C98.5281 18.4533 99.3335 18.304 100.208 18.304C101.083 18.304 101.888 18.4533 102.624 18.752C103.36 19.0507 104 19.472 104.544 20.016C105.088 20.5493 105.509 21.1787 105.808 21.904C106.107 22.6293 106.256 23.4187 106.256 24.272C106.256 25.1253 106.107 25.92 105.808 26.656C105.509 27.3813 105.088 28.016 104.544 28.56C104 29.0933 103.36 29.5093 102.624 29.808C101.888 30.1067 101.083 30.256 100.208 30.256ZM100.208 28.624C101.019 28.624 101.733 28.4373 102.352 28.064C102.971 27.6907 103.456 27.1787 103.808 26.528C104.16 25.8667 104.336 25.1147 104.336 24.272C104.336 23.4293 104.16 22.6827 103.808 22.032C103.456 21.3813 102.971 20.8693 102.352 20.496C101.733 20.1227 101.019 19.936 100.208 19.936C99.4081 19.936 98.6935 20.1227 98.0641 20.496C97.4455 20.8693 96.9601 21.3813 96.6081 22.032C96.2561 22.6827 96.0801 23.4293 96.0801 24.272C96.0801 25.1147 96.2561 25.8667 96.6081 26.528C96.9601 27.1787 97.4455 27.6907 98.0641 28.064C98.6935 28.4373 99.4081 28.624 100.208 28.624Z" fill="black"/>
</svg>
