<svg width="24" height="24" viewBox="0 0 24 24" fill="none" xmlns="http://www.w3.org/2000/svg">
<path d="M1.52544 11.7493C1.57137 11.7258 1.61733 11.7033 1.66211 11.6821C2.44061 11.3118 3.22946 10.9651 4.01715 10.6183C4.05963 10.6183 4.13081 10.5676 4.17099 10.5511C4.23185 10.524 4.29272 10.498 4.35358 10.4709C4.4707 10.419 4.58782 10.3683 4.70379 10.3164C4.93804 10.2138 5.17111 10.1112 5.40535 10.0086L6.80735 9.39178C7.74202 8.98136 8.67786 8.56976 9.61252 8.15934C10.5472 7.74892 11.483 7.33731 12.4177 6.92689C13.3523 6.51647 14.2881 6.10488 15.2228 5.69446C16.1575 5.28403 17.0933 4.87243 18.028 4.46201C18.2358 4.37002 18.4609 4.23321 18.6836 4.19311C18.8708 4.15891 19.0533 4.09287 19.2417 4.05631C19.5988 3.98672 19.9926 3.95842 20.3348 4.11056C20.453 4.16363 20.5621 4.23793 20.6528 4.3311C21.0869 4.77219 21.026 5.49632 20.9342 6.11667C20.2946 10.4402 19.655 14.765 19.0143 19.0886C18.927 19.6818 18.8076 20.3328 18.3518 20.7079C17.966 21.0251 17.4171 21.0605 16.9406 20.926C16.4641 20.7904 16.0438 20.5062 15.6316 20.2267C13.9219 19.0638 12.211 17.9009 10.5013 16.7381C10.0948 16.4621 9.64238 16.1012 9.64698 15.6C9.64927 15.2981 9.82494 15.0292 10.0041 14.7898C11.4899 12.799 13.6337 11.4309 15.2286 9.53213C15.4536 9.26441 15.6304 8.78087 15.3216 8.62637C15.1379 8.53438 14.9266 8.65939 14.7589 8.77851C12.6507 10.2822 10.5437 11.7871 8.43558 13.2908C7.74778 13.7814 7.02669 14.2862 6.19766 14.4065C5.45589 14.515 4.70954 14.3027 3.99189 14.0857C3.39021 13.9041 2.78966 13.7177 2.19143 13.5255C1.87337 13.4241 1.54497 13.3144 1.29924 13.0844C1.05352 12.8544 0.912307 12.4676 1.06043 12.1609C1.15344 11.9687 1.33371 11.8472 1.52317 11.7482L1.52544 11.7493Z" fill="black"/>
</svg>
